<?xml version="1.0" encoding="utf-8"?>
<!-- Generator: Adobe Illustrator 16.0.0, SVG Export Plug-In . SVG Version: 6.00 Build 0)  -->
<!DOCTYPE svg PUBLIC "-//W3C//DTD SVG 1.1//EN" "http://www.w3.org/Graphics/SVG/1.1/DTD/svg11.dtd">
<svg version="1.1" id="Layer_1" xmlns="http://www.w3.org/2000/svg" xmlns:xlink="http://www.w3.org/1999/xlink" x="0px" y="0px"
	 width="50px" height="50px" viewBox="0 0 50 50" enable-background="new 0 0 50 50" xml:space="preserve">
<rect fill="lightblue" width="50" height="50"/>
<g>
	<path d="M12.208,6.223H9.63v6.988H8.572V6.223H6.026V5.391h6.182V6.223z"/>
	<path d="M14.378,9.822v3.389H13.32V5.396h2.674c0.855,0,1.51,0.19,1.961,0.569s0.676,0.931,0.676,1.654
		c0,0.401-0.104,0.75-0.312,1.047c-0.211,0.297-0.516,0.534-0.916,0.709c0.43,0.14,0.738,0.366,0.926,0.68
		c0.188,0.313,0.281,0.701,0.281,1.163v0.736c0,0.244,0.027,0.462,0.082,0.655c0.053,0.193,0.146,0.351,0.279,0.473v0.129h-1.092
		c-0.139-0.122-0.229-0.301-0.268-0.537s-0.059-0.48-0.059-0.73v-0.714c0-0.422-0.125-0.763-0.371-1.021
		c-0.248-0.258-0.578-0.387-0.994-0.387H14.378z M14.378,8.989h1.509c0.598,0,1.029-0.114,1.293-0.341
		c0.262-0.228,0.395-0.574,0.395-1.04c0-0.44-0.129-0.782-0.385-1.023c-0.256-0.242-0.654-0.363-1.195-0.363h-1.616V8.989z"/>
	<path d="M21.489,13.211h-1.063v-7.82h1.063V13.211z"/>
	<path d="M25.98,9.365l2.041-3.975h1.208l-2.745,5.07v2.75h-1.053V10.38l-2.701-4.99h1.209L25.98,9.365z"/>
	<path d="M34.423,11.197h-2.943l-0.698,2.014h-1.08l2.82-7.82h0.908l2.76,7.82H35.11L34.423,11.197z M31.785,10.311h2.337
		l-1.139-3.357h-0.032L31.785,10.311z"/>
	<path d="M43.252,13.211h-1.058L38.43,7.238l-0.033,0.011v5.962h-1.058v-7.82h1.058l3.766,5.967l0.032-0.011V5.391h1.058V13.211z"/>
	<path d="M15.351,24.397h-2.943l-0.698,2.014h-1.08l2.82-7.82h0.908l2.76,7.82h-1.079L15.351,24.397z M12.713,23.511h2.336
		l-1.139-3.357h-0.032L12.713,23.511z"/>
	<path d="M19.324,23.022v3.389h-1.058v-7.815h2.675c0.855,0,1.51,0.19,1.961,0.569s0.676,0.931,0.676,1.654
		c0,0.401-0.104,0.75-0.313,1.047c-0.21,0.297-0.515,0.534-0.916,0.709c0.43,0.14,0.738,0.366,0.927,0.68
		c0.188,0.313,0.281,0.701,0.281,1.163v0.736c0,0.244,0.027,0.462,0.081,0.655s0.146,0.351,0.279,0.473v0.129h-1.091
		c-0.139-0.122-0.229-0.301-0.268-0.537c-0.04-0.236-0.06-0.48-0.06-0.73v-0.714c0-0.422-0.124-0.763-0.37-1.021
		c-0.248-0.258-0.579-0.387-0.994-0.387H19.324z M19.324,22.189h1.51c0.598,0,1.028-0.114,1.292-0.341
		c0.263-0.228,0.395-0.574,0.395-1.04c0-0.44-0.128-0.782-0.384-1.023c-0.256-0.242-0.654-0.363-1.195-0.363h-1.617V22.189z"/>
	<path d="M26.437,26.411h-1.063v-7.82h1.063V26.411z"/>
	<path d="M32.646,22.786h-3.213v2.798h3.76v0.827h-4.817v-7.82h4.759v0.833h-3.701v2.53h3.213V22.786z"/>
	<path d="M38.801,22.952h-3.299v3.459h-1.058v-7.82h4.903v0.833h-3.846v2.696h3.299V22.952z"/>
	<path d="M2.237,39.611v-7.82h2.46c1.021,0,1.841,0.314,2.463,0.941c0.621,0.629,0.932,1.441,0.932,2.438v1.068
		c0,0.998-0.311,1.811-0.932,2.436c-0.622,0.625-1.442,0.938-2.463,0.938H2.237z M3.295,32.623v6.16h1.402
		c0.723,0,1.293-0.238,1.711-0.713c0.417-0.477,0.625-1.088,0.625-1.832v-1.08c0-0.738-0.208-1.344-0.625-1.82
		c-0.417-0.477-0.988-0.715-1.711-0.715H3.295z"/>
	<path d="M13.957,35.986h-3.212v2.797h3.76v0.828H9.687v-7.82h4.759v0.832h-3.701v2.529h3.212V35.986z"/>
	<path d="M18.13,37.559l0.178,0.65h0.031l0.178-0.65l2.02-5.768h1.145l-2.906,7.82h-0.908l-2.905-7.82h1.149L18.13,37.559z"/>
	<path d="M25.865,36.721h-3.17v-0.826h3.17V36.721z"/>
	<path d="M27.669,39.611v-7.82h2.46c1.021,0,1.842,0.314,2.463,0.941c0.621,0.629,0.932,1.441,0.932,2.438v1.068
		c0,0.998-0.311,1.811-0.932,2.436s-1.442,0.938-2.463,0.938H27.669z M28.727,32.623v6.16h1.402c0.724,0,1.294-0.238,1.711-0.713
		c0.417-0.477,0.625-1.088,0.625-1.832v-1.08c0-0.738-0.208-1.344-0.625-1.82s-0.987-0.715-1.711-0.715H28.727z"/>
	<path d="M39.286,37.641c0-0.355-0.127-0.652-0.382-0.893c-0.254-0.24-0.701-0.443-1.342-0.611
		c-0.795-0.197-1.416-0.488-1.861-0.871c-0.446-0.383-0.669-0.865-0.669-1.445c0-0.611,0.24-1.121,0.72-1.529
		s1.103-0.613,1.869-0.613c0.823,0,1.479,0.234,1.969,0.701c0.488,0.467,0.726,1.012,0.711,1.635l-0.016,0.033h-1.01
		c0-0.445-0.155-0.811-0.465-1.102c-0.31-0.289-0.706-0.436-1.189-0.436c-0.494,0-0.873,0.121-1.136,0.361
		c-0.264,0.238-0.396,0.551-0.396,0.934c0,0.34,0.145,0.623,0.433,0.852c0.288,0.227,0.757,0.428,1.405,0.6
		c0.787,0.203,1.387,0.504,1.799,0.902c0.412,0.396,0.617,0.887,0.617,1.471c0,0.631-0.247,1.137-0.743,1.52
		s-1.144,0.576-1.942,0.576c-0.755,0-1.422-0.213-2-0.635s-0.858-0.988-0.841-1.697l0.011-0.031h1.01
		c0,0.49,0.187,0.869,0.559,1.135c0.372,0.268,0.793,0.4,1.262,0.4c0.502,0,0.898-0.113,1.19-0.338
		C39.141,38.332,39.286,38.027,39.286,37.641z"/>
	<path d="M47.756,39.611h-1.058l-3.765-5.973l-0.033,0.01v5.963h-1.058v-7.82H42.9l3.766,5.967l0.032-0.01v-5.957h1.058V39.611z"/>
</g>
</svg>
